# xmcd
#
# Track frame offsets:
#	150
#	15340
#	28910
#	47421
#	72160
#	83628
#	101110
#	115801
#	133799
#	158922
#	162680
#
# Disc length: 2346 seconds
#
# Revision: 0
# Processed by: cddbd v1.5.2PL0 Copyright (c) Steve Scherf et al.
# Submitted via: EasyCDDAExtractor 11.1.0.1
#
DISCID=8b09280b
DTITLE=Breakout - Na drugim brzegu tęczy
DYEAR=1900
DGENRE=Blues
TTITLE0=Poszła bym za toba
TTITLE1=Nie ukrywaj - wszystko wiem
TTITLE2=Na drugim brzegu teczy
TTITLE3=Czy mnie jeszcze pamiętasz
TTITLE4=Wołanie przez Dunajec
TTITLE5=Masz na to czas
TTITLE6=Gdybyś kochał hej
TTITLE7=Powiedzieliśmy juz wszystko
TTITLE8=Gdzie chcesz iśc
TTITLE9=Po ten księzyc złoty
TTITLE10=Za siódmą górą
EXTD=
EXTT0=
EXTT1=
EXTT2=
EXTT3=
EXTT4=
EXTT5=
EXTT6=
EXTT7=
EXTT8=
EXTT9=
EXTT10=
PLAYORDER=
